PathFileType	4	(X/Y/Z)	C:/Users/opensim2020/Desktop/walking_exp_matlab/subject03_walking05_straight_01.trc	
DataRate	CameraRate	NumFrames	NumMarkers	Units	OrigDataRate	OrigDataStartFrame	OrigNumFrames	
100.00	100.00	6	45	mm	100.00	950	298	
Frame#	Time	LFHD			RFHD			LBHD			RBHD			C7			T10			CLAV			STRN			RBAK			LSHO			LUPA			LELB			LFRM			LWRA			LWRB			LFIN			RSHO			RUPA			RELB			RFRM			RWRA			RWRB			RFIN			LASI			RASI			LPSI			RPSI			LTHI			LKNE			LTIB			LANK			LHEE			LTOE			RTHI			RKNE			RTIB			RANK			RHEE			RTOE			*39			*40			*41			*42			*43			*44			
		X1	Y1	Z1	X2	Y2	Z2	X3	Y3	Z3	X4	Y4	Z4	X5	Y5	Z5	X6	Y6	Z6	X7	Y7	Z7	X8	Y8	Z8	X9	Y9	Z9	X10	Y10	Z10	X11	Y11	Z11	X12	Y12	Z12	X13	Y13	Z13	X14	Y14	Z14	X15	Y15	Z15	X16	Y16	Z16	X17	Y17	Z17	X18	Y18	Z18	X19	Y19	Z19	X20	Y20	Z20	X21	Y21	Z21	X22	Y22	Z22	X23	Y23	Z23	X24	Y24	Z24	X25	Y25	Z25	X26	Y26	Z26	X27	Y27	Z27	X28	Y28	Z28	X29	Y29	Z29	X30	Y30	Z30	X31	Y31	Z31	X32	Y32	Z32	X33	Y33	Z33	X34	Y34	Z34	X35	Y35	Z35	X36	Y36	Z36	X37	Y37	Z37	X38	Y38	Z38	X39	Y39	Z39	X40	Y40	Z40	X41	Y41	Z41	X42	Y42	Z42	X43	Y43	Z43	X44	Y44	Z44	X45	Y45	Z45	

224	2.230	-1064.46289	850.05713	1599.79504	-934.20892	822.60449	1602.91760	-1087.64697	718.56305	1576.55774	-958.54517	696.97308	1578.79749	-1029.45398	660.29620	1410.41089	-1027.56042	622.43219	1093.92627	-1022.59015	778.69519	1329.99548	-1022.73199	820.75018	1165.56494	-931.59863	598.52411	1235.06128	-1181.48022	738.87946	1365.62793	-1246.91223	707.10907	1165.95313	-1254.42908	697.03625	1042.67444	-1251.01794	705.18054	912.14581	-1217.84924	707.02820	793.82172	-1268.67249	683.95441	800.55334	-1255.97009	685.24628	715.93652	-865.87622	726.21027	1357.87244	-782.35956	758.83270	1144.36890	-765.01367	801.51807	1041.38708	-764.83246	864.26117	920.18414	-803.13696	925.86938	843.59753	-759.12952	900.04840	826.48273	-769.87128	948.84045	771.48090	-1131.04749	802.68970	931.33722	-893.29309	783.47614	932.64984	-1096.60120	635.82074	945.51202	-947.11560	625.30975	960.47577	-1183.75037	820.70874	633.29694	-1141.50952	888.08197	470.18637	-1145.69604	887.58893	277.72131	-1112.18872	931.16870	70.28997	-1072.35571	898.74408	30.81239	-1088.75806	1082.62903	55.35350	-867.56708	696.68317	640.22571	-907.30957	682.00580	461.65039	-912.85126	600.77002	285.80399	-969.36542	532.08948	81.55578	-1021.08447	484.60120	57.01664	-982.78564	669.05566	31.30228	-1028.26074	769.41650	1672.39844															 
225	2.240	-1064.39905	860.29846	1598.80249	-934.20410	832.53973	1601.96631	-1087.93066	728.84662	1575.59937	-958.92944	706.86835	1577.79480	-1029.93677	670.31641	1409.42651	-1028.64270	632.61743	1092.92102	-1022.78943	788.79022	1329.04419	-1022.70947	830.83160	1164.59094	-932.27893	608.31287	1234.14673	-1181.75024	749.28589	1364.62720	-1247.00989	716.12091	1165.12122	-1254.49023	705.19690	1041.85364	-1250.97021	712.11060	911.27148	-1217.78369	712.86725	793.04358	-1268.60535	689.74426	799.86871	-1255.85986	689.96942	715.27411	-866.27289	735.95105	1356.92639	-782.56091	768.78271	1143.60168	-765.20386	811.67657	1040.83032	-765.34076	875.44183	920.25513	-803.99579	937.65802	844.34894	-759.96478	912.17181	826.89502	-770.78296	961.67896	772.67401	-1131.08997	813.50745	930.03955	-893.43152	793.11444	931.88824	-1097.71362	646.53699	944.39886	-948.32587	634.91339	959.61462	-1184.40637	828.72577	631.17999	-1140.25903	895.09332	467.57941	-1144.68018	901.25452	276.65057	-1112.45886	953.04309	70.73278	-1072.91406	922.08624	30.31767	-1088.41101	1105.43872	60.70402	-867.41901	704.18127	639.84198	-906.98645	688.27631	461.28171	-912.64221	604.61481	286.42059	-969.30151	533.12885	83.15121	-1021.02594	485.26517	59.18040	-982.49799	669.30048	31.30970	-1028.34766	779.56305	1671.46106															 
226	2.250	-1064.29065	870.52313	1597.87585	-934.17792	842.32672	1600.99915	-1088.23096	739.15228	1574.75220	-959.29694	716.76654	1576.94788	-1030.46350	680.34955	1408.42480	-1029.69849	643.00397	1091.91919	-1022.97430	798.88348	1328.12646	-1022.66937	841.09534	1163.70752	-933.12006	618.17493	1233.11194	-1182.18469	759.72137	1363.75159	-1247.24951	725.47485	1164.24353	-1254.48694	713.81335	1041.04956	-1250.91394	719.31409	910.42615	-1217.54578	718.86322	792.11700	-1268.64880	695.91351	799.22345	-1255.61011	694.79083	714.11328	-866.68958	745.52954	1355.96948	-782.82050	778.66431	1142.85559	-765.43207	821.63477	1040.19226	-765.87689	886.30341	920.11902	-804.78314	949.17651	845.01642	-760.86957	923.87103	827.13666	-771.73676	973.99115	773.57422	-1131.10840	824.48932	928.89801	-893.63086	802.78210	931.07068	-1098.88684	657.28259	943.44434	-949.61194	644.77393	958.64319	-1184.71594	837.05798	629.12518	-1138.72351	902.58826	465.58344	-1143.87866	914.30939	275.94586	-1112.79346	972.86768	71.60175	-1073.89124	943.57690	29.55541	-1088.13013	1125.81653	66.31141	-867.37366	711.89709	639.50012	-906.64832	694.86853	460.92102	-912.43610	608.66266	287.08508	-968.97888	533.89429	84.93526	-1020.79419	485.85583	61.63202	-982.39709	669.48029	31.27127	-1028.50879	789.74438	1670.57190															 
227	2.260	-1064.24780	880.76630	1597.05322	-934.21606	852.17792	1600.12341	-1088.59277	749.44073	1573.92627	-959.69043	726.71222	1576.11169	-1031.04089	690.48584	1407.52405	-1030.78357	653.51697	1090.93530	-1023.22363	809.07819	1327.32605	-1022.67310	851.46014	1162.95154	-934.06177	628.09198	1232.02881	-1182.55981	770.23047	1362.83191	-1247.48462	735.17841	1163.48157	-1254.69971	722.64203	1040.29688	-1251.01904	727.18311	909.67078	-1217.69617	725.33197	791.32617	-1268.59802	702.63025	798.53973	-1255.80725	700.84729	713.86517	-867.11853	755.09357	1355.06580	-783.19226	788.46216	1142.09680	-765.77771	831.45740	1039.50598	-766.34564	896.92041	919.94824	-805.68884	960.30701	845.38837	-761.80066	935.22803	827.26642	-772.63837	985.85077	774.27277	-1131.11987	835.53400	927.82782	-893.71332	812.62158	930.27795	-1100.12415	668.17267	942.60089	-950.88159	654.61768	957.75708	-1184.61755	845.70020	627.23914	-1137.27710	910.39020	463.65131	-1143.47241	926.96454	275.61887	-1113.05872	990.19916	72.32967	-1074.75134	962.15503	29.03675	-1087.81458	1143.59009	70.97559	-867.48212	719.89160	639.23639	-906.28754	701.71014	460.64740	-912.23566	612.91467	287.87778	-968.72125	534.92938	86.87354	-1020.50507	486.51355	64.48985	-982.26642	669.70502	31.21494	-1028.71448	799.90747	1669.74670															 
228	2.270	-1064.19507	891.00702	1596.34595	-934.22028	862.03436	1599.42200	-1088.95459	759.74329	1573.24866	-960.16473	736.57385	1575.39966	-1031.69128	700.60547	1406.69604	-1031.79773	664.18616	1090.00085	-1023.47363	819.28192	1326.61865	-1022.68616	861.89459	1162.30042	-935.15240	638.00354	1231.03662	-1183.10828	780.83600	1362.15027	-1248.03821	745.22668	1162.60962	-1254.85767	731.99426	1039.57190	-1251.18469	735.48297	908.91431	-1217.78931	732.29968	790.60028	-1268.83936	709.78845	798.01282	-1255.93091	707.11682	713.32373	-867.52362	764.62817	1354.21375	-783.66113	798.29419	1141.43152	-766.21240	841.21411	1038.79565	-767.14380	907.22186	919.67230	-806.61096	971.13892	845.63464	-762.76825	946.18719	827.17090	-773.86285	997.12537	774.67535	-1131.10828	846.70966	926.88562	-893.90173	822.36292	929.44934	-1101.30347	679.20715	942.00952	-952.35461	665.17725	956.78693	-1184.04199	854.70245	625.55469	-1135.99500	918.99451	462.13867	-1143.28455	939.01385	275.48459	-1113.39819	1005.13287	72.77843	-1075.41858	977.07471	28.76729	-1087.38135	1158.49377	74.02458	-867.65704	728.12384	638.95862	-905.89661	708.93323	460.37024	-911.97424	617.51508	288.77582	-968.34204	536.23370	89.10418	-1020.15936	487.51175	67.45238	-982.12555	669.96960	31.19284	-1028.87964	810.03357	1669.06726															 
229	2.280	-1064.15674	901.25311	1595.77734	-934.28046	871.79761	1598.73865	-1089.35266	770.06030	1572.67334	-960.52075	746.55573	1574.80518	-1032.46436	710.87244	1405.94141	-1032.60730	675.11108	1088.91467	-1023.74207	829.58130	1326.02234	-1022.73395	872.48706	1161.81458	-936.23883	648.10773	1230.00354	-1183.58826	791.51038	1361.49231	-1248.17188	755.35773	1161.99902	-1255.12463	741.62244	1038.88196	-1251.12646	743.75537	907.85687	-1217.74573	739.82202	789.87787	-1269.00586	717.54736	797.48340	-1255.88062	713.70081	712.48877	-867.99829	774.20056	1353.43762	-784.14551	807.82086	1140.59875	-766.72089	850.77521	1038.06909	-767.75171	917.26770	919.23297	-807.53821	981.50842	845.69171	-763.72662	956.69330	826.97791	-774.82947	1008.02582	774.86646	-1131.05420	857.98682	926.07605	-894.00543	831.99689	928.56604	-1102.48645	690.43707	941.43292	-953.47998	675.21661	956.21167	-1183.31592	864.12170	624.27405	-1135.02112	928.31104	461.13083	-1143.29321	950.12152	275.20981	-1113.36218	1017.04071	72.56551	-1076.14221	989.21863	27.77664	-1086.74976	1170.36511	75.15987	-867.88647	736.63287	638.76227	-905.54681	716.58575	460.13586	-911.70007	622.42346	289.76617	-967.90613	537.59003	91.48990	-1019.69305	488.38882	70.78017	-981.92255	670.26947	31.15774	-1029.08289	820.16113	1668.45874															 
